<svg id="Global-Logo" xmlns="http://www.w3.org/2000/svg" viewBox="0 0 329.63 364.95"><defs><style>.cls-1{fill:#6a5da5;}.cls-2{fill:none;stroke:#6a5da5;stroke-linecap:round;stroke-linejoin:round;stroke-width:19.08px;}</style></defs><g id="Panier"><path class="cls-1" d="M204.09,307.22a2,2,0,0,1-.63-3.85h0l144.66-29.08,3.37-95.06L161.76,202.74a2,2,0,1,1-.48-3.88h0l192-23.79a2,2,0,0,1,2.19,1.7c0,.11,0,.21,0,.31L352,276a2,2,0,0,1-1.57,1.85L204.23,307.2l-.14,0Zm-7.54,1.48a1.94,1.94,0,0,1-2.05-1.2L132.13,153.75a1.94,1.94,0,0,1,1.07-2.54h0a1.94,1.94,0,0,1,2.54,1.08L198.12,306a2,2,0,0,1-1.07,2.55h0a2.15,2.15,0,0,1-.5.12Z" transform="translate(-85.18 -67.53)"/><path class="cls-1" d="M204.09,307.23A2,2,0,0,1,202,306L136.68,145.31a2,2,0,0,1,3.62-1.47l65.36,160.71a2,2,0,0,1-1.07,2.55,1.76,1.76,0,0,1-.5.13ZM134.18,155,107,158.32a1.94,1.94,0,0,1-2.18-1.69h0a2,2,0,0,1,1.7-2.18h0l27.15-3.36a2,2,0,0,1,2.18,1.7h0a2,2,0,0,1-1.7,2.18Z" transform="translate(-85.18 -67.53)"/><path class="cls-1" d="M138.73,146.52l-32.66,4a2,2,0,0,1-2.18-1.7h0a1.94,1.94,0,0,1,1.7-2.18l32.66-4.05a2,2,0,0,1,2.18,1.7h0a2,2,0,0,1-1.7,2.18Z" transform="translate(-85.18 -67.53)"/><path class="cls-1" d="M107,158.32a5.86,5.86,0,1,1-1.44-11.63,2,2,0,0,1,2.18,1.69h0a2,2,0,0,1-1.7,2.18h0a1.95,1.95,0,1,0,.48,3.87,2,2,0,0,1,2.18,1.7h0a2,2,0,0,1-1.7,2.18Zm234.1,45.82-157.7,19.55a2,2,0,0,1-2.18-1.7h0a1.94,1.94,0,0,1,1.69-2.18h0l157.7-19.54a2,2,0,0,1,.49,3.87Zm-4.39,28.12L198.43,249.4a2,2,0,0,1-.48-3.88l138.31-17.14a2,2,0,1,1,.48,3.88Zm-4.39,28.11-122.8,15.22a2,2,0,0,1-2.18-1.7h0a2,2,0,0,1,1.7-2.18h0l122.8-15.22a2,2,0,0,1,2.18,1.7h0a2,2,0,0,1-1.7,2.18ZM195.56,332.46a2.14,2.14,0,0,1-.87-.09,1.94,1.94,0,0,1-1.22-2.47h0L202,304.66a2,2,0,1,1,3.7,1.26l-8.53,25.23a2,2,0,0,1-1.61,1.31Zm-7.68,1a1.84,1.84,0,0,1-.87-.09,1.94,1.94,0,0,1-1.22-2.47h0l8.53-25.23a2,2,0,1,1,3.7,1.25l-8.53,25.23A2,2,0,0,1,187.88,333.41Zm160.88-4.18-139.64,17.3a2,2,0,0,1-2.18-1.7h0a2,2,0,0,1,1.7-2.18l139.63-17.3a2,2,0,0,1,2.18,1.7h0a1.94,1.94,0,0,1-1.69,2.18Zm-1-7.76-139.63,17.3a1.94,1.94,0,0,1-2.18-1.69h0a2,2,0,0,1,1.69-2.18h0l139.63-17.3a2,2,0,0,1,2.18,1.7h0a1.94,1.94,0,0,1-1.69,2.18Z" transform="translate(-85.18 -67.53)"/><path class="cls-1" d="M209.12,346.53c-11.77,1.46-22.31-5.19-23.5-14.81a2,2,0,0,1,1.7-2.18h0a2,2,0,0,1,2.18,1.7h0c.93,7.48,9.51,12.6,19.14,11.41a2,2,0,0,1,2.18,1.7h0a2,2,0,0,1-1.7,2.18Z" transform="translate(-85.18 -67.53)"/><path class="cls-1" d="M208.16,338.77c-6.41.8-14.09-2.46-14.78-8a2,2,0,0,1,1.7-2.18h0a2,2,0,0,1,2.18,1.7h0c.35,2.83,5.7,5.2,10.42,4.61a2,2,0,0,1,2.18,1.7h0a2,2,0,0,1-1.7,2.18Zm140.6-9.54a2,2,0,0,1-2.18-1.7h0a1.94,1.94,0,0,1,1.69-2.18,2,2,0,1,0-.48-3.88,2,2,0,0,1-2.18-1.7h0a2,2,0,0,1,1.7-2.18h0a5.86,5.86,0,0,1,1.45,11.64Zm-23.21-60.14a2,2,0,0,1-2.18-1.7h0l-8.65-69.82a2,2,0,0,1,1.7-2.18h0a2,2,0,0,1,2.18,1.7h0l8.65,69.82a2,2,0,0,1-1.7,2.18Zm-27.15,3.36a1.94,1.94,0,0,1-2.18-1.69h0l-8.65-69.81a1.94,1.94,0,0,1,1.69-2.18h0a2,2,0,0,1,2.18,1.7l8.65,69.81a2,2,0,0,1-1.7,2.18Zm-27.15,3.37a2,2,0,0,1-2.18-1.7h0l-8.65-69.82a1.94,1.94,0,0,1,1.69-2.18h0a2,2,0,0,1,2.18,1.7L273,273.64a2,2,0,0,1-1.7,2.18Zm-27.16,3.36a2,2,0,0,1-2.18-1.69h0l-8.65-69.82a2,2,0,0,1,1.7-2.17h0a1.94,1.94,0,0,1,2.18,1.69L245.79,277a1.94,1.94,0,0,1-1.69,2.18Zm-27.15,3.37a2,2,0,0,1-2.18-1.7h0L206.11,211a2,2,0,0,1,1.7-2.18h0a2,2,0,0,1,2.18,1.7h0l8.65,69.82a2,2,0,0,1-1.69,2.18Zm9.6,93.33a15.65,15.65,0,0,1-17.44-13.59,15.21,15.21,0,0,1,.1-4.52,2,2,0,0,1,3.85.64h0a11.72,11.72,0,1,0,22.31-2.76,2,2,0,0,1,1-2.57h0a2,2,0,0,1,2.56,1h0a15.65,15.65,0,0,1-12.4,21.79Z" transform="translate(-85.18 -67.53)"/><path class="cls-1" d="M225.34,366.18c-4.36.54-10-9.13-13.87-17.35a2,2,0,0,1,.92-2.6h0a1.94,1.94,0,0,1,2.6.91h0c3.67,7.68,8.34,14.76,10,15.15,1.23-.74,4-8.75,5.72-17.1a1.94,1.94,0,0,1,2.28-1.53h0a2,2,0,0,1,1.53,2.3h0C232.75,354.89,229.7,365.64,225.34,366.18Zm102-2.8A15.65,15.65,0,0,1,310,349.79a15.84,15.84,0,0,1,.09-4.51,2,2,0,0,1,3.86.65,11.59,11.59,0,0,0-.07,3.38,11.72,11.72,0,1,0,22.38-6.15,2,2,0,1,1,3.58-1.56h0A15.27,15.27,0,0,1,341,346a15.65,15.65,0,0,1-13.59,17.43Z" transform="translate(-85.18 -67.53)"/><path class="cls-1" d="M326.19,353.69c-4.37.54-9.95-9.14-13.87-17.35a2,2,0,0,1,3.53-1.69h0c3.66,7.69,8.34,14.77,10,15.16,1.23-.75,4-8.76,5.71-17.11a2,2,0,0,1,2.3-1.52h0a2,2,0,0,1,1.53,2.3c-1.8,8.92-4.85,19.67-9.21,20.21Z" transform="translate(-85.18 -67.53)"/></g><g id="Securite"><path class="cls-2" d="M237.55,419c4,2.08,6,3.12,8.74,3.66a22,22,0,0,0,7.42,0c2.76-.54,4.75-1.58,8.74-3.66C299.3,399.76,405.27,337,405.27,250.43V177c0-15.52,0-23.28-2.53-30a38.84,38.84,0,0,0-10.62-15.31c-5.35-4.72-12.62-7.45-27.15-12.9l-104.07-39c-4-1.51-6-2.27-8.12-2.57a19.18,19.18,0,0,0-5.56,0c-2.07.3-4.09,1.06-8.12,2.57L135,118.86c-14.53,5.45-21.8,8.18-27.15,12.9a38.84,38.84,0,0,0-10.62,15.31c-2.53,6.67-2.53,14.43-2.53,30v73.41C94.73,337,200.7,399.76,237.55,419Z" transform="translate(-85.18 -67.53)"/></g></svg>